<?xml version="1.0" encoding="utf-8"?>
<!-- Generator: Adobe Illustrator 19.0.1, SVG Export Plug-In . SVG Version: 6.00 Build 0)  -->
<svg version="1.1" xmlns="http://www.w3.org/2000/svg" xmlns:xlink="http://www.w3.org/1999/xlink" x="0px" y="0px"
	 viewBox="0 0 1920 1080" style="enable-background:new 0 0 1920 1080;" xml:space="preserve">
<style type="text/css">
	.st0{fill:#FFB400;}
	.st1{fill:#333333;}
	.st2{fill:#FFFFFF;}
</style>
<g id="bg">
	<rect class="st0" width="1920" height="1100"/>
</g>
<g id="logo">
	<path class="st2" d="M575,415v250h250V415H575z M712.5,601.2c0,21.3-11.1,38.8-35.6,38.8c-16.8,0-28.1-6.6-35.7-20l17-12.5
		c4.1,7.5,9.9,11,15.5,11c9,0,13.8-4.6,13.8-19.3v-71.7h25V601.2z M764.4,640c-14.5,0-29.8-5.4-41-15.9l14.3-17.1
		c8,6.8,18.2,11.5,27.4,11.5c10.4,0,15.5-4.1,15.5-10.7c0-6.9-6.3-9.1-16-13.2l-14.5-6.1c-11.4-4.6-22.3-14.1-22.3-30.2
		c0-18.3,16.3-32.9,39.5-32.9c12.8,0,26.2,5.1,35.7,14.6l-12.8,15.8c-7.3-5.6-14.1-8.8-23-8.8c-8.7,0-14.1,3.7-14.1,10
		c0,6.8,7.3,9.1,16.8,13l14.3,5.8c13.4,5.4,21.9,14.4,21.9,30C806.3,624.1,790.9,640,764.4,640z M902.9,540.6
		c0-43.9,24.8-69.1,61.2-69.1c36.4,0,61.2,25.4,61.2,69.1c0,43.9-24.8,70.3-61.2,70.3C927.7,611,902.9,584.6,902.9,540.6z
		 M994.1,537.9c0-26.8-11.6-42.9-30-42.9c-18.4,0-30,16.1-30,42.9c0,27,11.6,44.1,30,44.1C982.5,582,994.1,564.9,994.1,537.9z
		 M1123.3,608.8l-25.8-48.5h-16.7v48.5h-30.4V474.2h48.6c28.5,0,51.9,9.9,51.9,41.9c0,19.8-9.5,32.4-24,38.8l30.6,53.8H1123.3z
		 M1080.7,533.1h15.7c15.9,0,24.6-6.8,24.6-20c0-13.2-8.7-17.7-24.6-17.7h-15.7V533.1z M1171.2,542.1c0-44.6,29.8-70.6,65.7-70.6
		c19.4,0,33.5,8.5,42.4,17.5l-15.9,19.4c-6.8-6-13.9-10.7-25.4-10.7c-20.9,0-35.6,16.3-35.6,43.3c0,27.6,12.6,43.7,37.8,43.7
		c5.6,0,11.2-1.4,14.5-4.1v-23.1h-22.3v-24.8h49.2v61.9c-9.3,9.1-25.6,16.3-44.4,16.3C1200.1,611,1171.2,587.3,1171.2,542.1z
		 M1320,440v200H870V440H1320 M1345,415H845v250h500V415L1345,415z"/>
</g>
</svg>
