<?xml version="1.0" encoding="utf-8"?>
<!-- Generator: Adobe Illustrator 19.0.1, SVG Export Plug-In . SVG Version: 6.00 Build 0)  -->
<svg version="1.1" xmlns="http://www.w3.org/2000/svg" xmlns:xlink="http://www.w3.org/1999/xlink" x="0px" y="0px"
	 viewBox="0 0 1920 1080" style="enable-background:new 0 0 1920 1080;" xml:space="preserve">
<style type="text/css">
	.st0{fill:#FFB400;}
	.st1{fill:#333333;}
	.st2{fill:#FFFFFF;}
</style>
<g id="bg">
	<rect x="-3880" y="-2200" class="st0" width="1920" height="1100"/>
	<rect x="-1940" y="-2200" class="st0" width="1920" height="1100"/>
	<rect y="-2200" class="st0" width="1920" height="1100"/>
	<rect x="-3880" y="-1100" class="st1" width="1920" height="1100"/>
	<rect x="-1940" y="-1100" class="st1" width="1920" height="1100"/>
	<rect y="-1100" class="st1" width="1920" height="1100"/>
</g>
<g id="logo">
	<path class="st2" d="M-3430-1910v500h500v-500H-3430z M-3155-1537.6c0,42.7-22.1,77.6-71.1,77.6c-33.7,0-56.1-13.2-71.4-40l34-25.1
		c8.2,14.9,19.7,22,31,22c18,0,27.6-9.1,27.6-38.6V-1685h50V-1537.6z M-3051.2-1460c-28.9,0-59.5-10.8-82-31.9l28.6-34.2
		c16,13.6,36.4,23,54.8,23c20.8,0,31-8.1,31-21.3c0-13.9-12.6-18.3-32-26.4l-28.9-12.2c-22.8-9.2-44.6-28.1-44.6-60.3
		c0-36.6,32.7-65.7,78.9-65.7c25.5,0,52.4,10.2,71.4,29.1l-25.5,31.5c-14.6-11.2-28.2-17.6-45.9-17.6c-17.4,0-28.2,7.5-28.2,20
		c0,13.6,14.6,18.3,33.7,26.1l28.6,11.5c26.9,10.8,43.9,28.8,43.9,60C-2967.5-1491.9-2998.1-1460-3051.2-1460z M-2851.1-1534.4
		c0-43.9,24.8-69.1,61.2-69.1c36.4,0,61.2,25.4,61.2,69.1c0,43.9-24.8,70.3-61.2,70.3C-2826.3-1464-2851.1-1490.4-2851.1-1534.4z
		 M-2760-1534.4c0-26.8-11.6-42.9-30-42.9c-18.4,0-30,16.1-30,42.9c0,27,11.6,44.1,30,44.1C-2771.5-1490.2-2760-1507.3-2760-1534.4z
		 M-2630.8-1466.2l-25.8-48.5h-16.7v48.5h-30.4v-134.5h48.6c28.5,0,51.9,9.9,51.9,41.9c0,19.8-9.5,32.4-24,38.8l30.6,53.8H-2630.8z
		 M-2673.4-1539.1h15.7c15.9,0,24.6-6.8,24.6-20c0-13.2-8.7-17.7-24.6-17.7h-15.7V-1539.1z M-2582.9-1532.9
		c0-44.6,29.8-70.6,65.7-70.6c19.4,0,33.5,8.5,42.4,17.5l-15.9,19.4c-6.8-6-13.9-10.7-25.4-10.7c-20.9,0-35.6,16.3-35.6,43.3
		c0,27.6,12.6,43.7,37.8,43.7c5.6,0,11.2-1.4,14.5-4.1v-23.1h-22.3v-24.8h49.2v61.9c-9.3,9.1-25.6,16.3-44.4,16.3
		C-2554-1464-2582.9-1487.7-2582.9-1532.9z M-2435-1885v450h-450v-450H-2435 M-2410-1910h-500v500h500V-1910L-2410-1910z"/>
	<path class="st2" d="M-1230-2045v500h500v-500H-1230z M-955-1672.6c0,42.7-22.1,77.6-71.1,77.6c-33.7,0-56.1-13.2-71.4-40l34-25.1
		c8.2,14.9,19.7,22,31,22c18,0,27.6-9.1,27.6-38.6V-1820h50V-1672.6z M-851.2-1595c-28.9,0-59.5-10.8-82-31.9l28.6-34.2
		c16,13.6,36.4,23,54.8,23c20.8,0,31-8.1,31-21.3c0-13.9-12.6-18.3-32-26.4l-28.9-12.2c-22.8-9.2-44.6-28.1-44.6-60.3
		c0-36.6,32.7-65.7,78.9-65.7c25.5,0,52.4,10.2,71.4,29.1l-25.5,31.5c-14.6-11.2-28.2-17.6-45.9-17.6c-17.4,0-28.2,7.5-28.2,20
		c0,13.6,14.6,18.3,33.7,26.1l28.6,11.5c26.9,10.8,43.9,28.8,43.9,60C-767.5-1626.9-798.1-1595-851.2-1595z M-1172.1-1399.4
		c0-43.9,24.8-69.1,61.2-69.1c36.4,0,61.2,25.4,61.2,69.1c0,43.9-24.8,70.3-61.2,70.3C-1147.3-1329-1172.1-1355.4-1172.1-1399.4z
		 M-1080.9-1402.1c0-26.8-11.6-42.9-30-42.9c-18.4,0-30,16.1-30,42.9c0,27,11.6,44.1,30,44.1
		C-1092.5-1358-1080.9-1375.1-1080.9-1402.1z M-951.7-1331.2l-25.8-48.5h-16.7v48.5h-30.4v-134.5h48.6c28.5,0,51.9,9.9,51.9,41.9
		c0,19.8-9.5,32.4-24,38.8l30.6,53.8H-951.7z M-994.3-1406.9h15.7c15.9,0,24.6-6.8,24.6-20s-8.7-17.7-24.6-17.7h-15.7V-1406.9z
		 M-903.8-1397.9c0-44.6,29.8-70.6,65.7-70.6c19.4,0,33.5,8.5,42.4,17.5l-15.9,19.4c-6.8-6-13.9-10.7-25.4-10.7
		c-20.9,0-35.6,16.3-35.6,43.3c0,27.6,12.6,43.7,37.8,43.7c5.6,0,11.2-1.4,14.5-4.1v-23.1h-22.3v-24.8h49.2v61.9
		c-9.3,9.1-25.6,16.3-44.4,16.3C-874.9-1329-903.8-1352.7-903.8-1397.9z M-755-1500v200h-450v-200H-755 M-730-1525h-500v250h500
		V-1525L-730-1525z"/>
	<path class="st2" d="M575-1785v250h250v-250H575z M712.5-1598.8c0,21.3-11.1,38.8-35.6,38.8c-16.8,0-28.1-6.6-35.7-20l17-12.5
		c4.1,7.5,9.9,11,15.5,11c9,0,13.8-4.6,13.8-19.3v-71.7h25V-1598.8z M764.4-1560c-14.5,0-29.8-5.4-41-15.9l14.3-17.1
		c8,6.8,18.2,11.5,27.4,11.5c10.4,0,15.5-4.1,15.5-10.7c0-6.9-6.3-9.1-16-13.2l-14.5-6.1c-11.4-4.6-22.3-14.1-22.3-30.2
		c0-18.3,16.3-32.9,39.5-32.9c12.8,0,26.2,5.1,35.7,14.6l-12.8,15.8c-7.3-5.6-14.1-8.8-23-8.8c-8.7,0-14.1,3.7-14.1,10
		c0,6.8,7.3,9.1,16.8,13l14.3,5.8c13.4,5.4,21.9,14.4,21.9,30C806.3-1575.9,790.9-1560,764.4-1560z M902.9-1659.4
		c0-43.9,24.8-69.1,61.2-69.1c36.4,0,61.2,25.4,61.2,69.1c0,43.9-24.8,70.3-61.2,70.3C927.7-1589,902.9-1615.4,902.9-1659.4z
		 M994.1-1662.1c0-26.8-11.6-42.9-30-42.9c-18.4,0-30,16.1-30,42.9c0,27,11.6,44.1,30,44.1C982.5-1618,994.1-1635.1,994.1-1662.1z
		 M1123.3-1591.2l-25.8-48.5h-16.7v48.5h-30.4v-134.5h48.6c28.5,0,51.9,9.9,51.9,41.9c0,19.8-9.5,32.4-24,38.8l30.6,53.8H1123.3z
		 M1080.7-1666.9h15.7c15.9,0,24.6-6.8,24.6-20c0-13.2-8.7-17.7-24.6-17.7h-15.7V-1666.9z M1171.2-1657.9
		c0-44.6,29.8-70.6,65.7-70.6c19.4,0,33.5,8.5,42.4,17.5l-15.9,19.4c-6.8-6-13.9-10.7-25.4-10.7c-20.9,0-35.6,16.3-35.6,43.3
		c0,27.6,12.6,43.7,37.8,43.7c5.6,0,11.2-1.4,14.5-4.1v-23.1h-22.3v-24.8h49.2v61.9c-9.3,9.1-25.6,16.3-44.4,16.3
		C1200.1-1589,1171.2-1612.7,1171.2-1657.9z M1320-1760v200H870v-200H1320 M1345-1785H845v250h500V-1785L1345-1785z"/>
	<path class="st2" d="M-3430-810v500h500v-500H-3430z M-3155-437.6c0,42.7-22.1,77.6-71.1,77.6c-33.7,0-56.1-13.2-71.4-40l34-25.1
		c8.2,14.9,19.7,22,31,22c18,0,27.6-9.1,27.6-38.6V-585h50V-437.6z M-3051.2-360c-28.9,0-59.5-10.8-82-31.9l28.6-34.2
		c16,13.6,36.4,23,54.8,23c20.8,0,31-8.1,31-21.3c0-13.9-12.6-18.3-32-26.4l-28.9-12.2c-22.8-9.1-44.6-28.1-44.6-60.3
		c0-36.6,32.7-65.7,78.9-65.7c25.5,0,52.4,10.2,71.4,29.1l-25.5,31.5c-14.6-11.2-28.2-17.6-45.9-17.6c-17.4,0-28.2,7.5-28.2,20
		c0,13.6,14.6,18.3,33.7,26.1l28.6,11.5c26.9,10.8,43.9,28.8,43.9,60C-2967.5-391.9-2998.1-360-3051.2-360z M-2851.1-434.4
		c0-43.9,24.8-69.1,61.2-69.1c36.4,0,61.2,25.4,61.2,69.1c0,43.9-24.8,70.3-61.2,70.3C-2826.3-364-2851.1-390.4-2851.1-434.4z
		 M-2760-434.4c0-26.8-11.6-42.9-30-42.9c-18.4,0-30,16.1-30,42.9c0,27,11.6,44.1,30,44.1C-2771.5-390.2-2760-407.3-2760-434.4z
		 M-2630.8-366.2l-25.8-48.5h-16.7v48.5h-30.4v-134.5h48.6c28.5,0,51.9,9.9,51.9,41.9c0,19.8-9.5,32.4-24,38.8l30.6,53.8H-2630.8z
		 M-2673.4-439.1h15.7c15.9,0,24.6-6.8,24.6-20c0-13.2-8.7-17.7-24.6-17.7h-15.7V-439.1z M-2582.9-432.9c0-44.6,29.8-70.6,65.7-70.6
		c19.4,0,33.5,8.5,42.4,17.5l-15.9,19.4c-6.8-6-13.9-10.7-25.4-10.7c-20.9,0-35.6,16.3-35.6,43.3c0,27.6,12.6,43.7,37.8,43.7
		c5.6,0,11.2-1.4,14.5-4.1v-23.1h-22.3v-24.8h49.2v61.9c-9.3,9.1-25.6,16.3-44.4,16.3C-2554-364-2582.9-387.7-2582.9-432.9z
		 M-2435-785v450h-450v-450H-2435 M-2410-810h-500v500h500V-810L-2410-810z"/>
	<path class="st2" d="M-1230-945v500h500v-500H-1230z M-955-572.6c0,42.7-22.1,77.6-71.1,77.6c-33.7,0-56.1-13.2-71.4-40l34-25.1
		c8.2,14.9,19.7,22,31,22c18,0,27.6-9.1,27.6-38.6V-720h50V-572.6z M-851.2-495c-28.9,0-59.5-10.8-82-31.9l28.6-34.2
		c16,13.6,36.4,23,54.8,23c20.8,0,31-8.1,31-21.3c0-13.9-12.6-18.3-32-26.4l-28.9-12.2c-22.8-9.1-44.6-28.1-44.6-60.3
		c0-36.6,32.7-65.7,78.9-65.7c25.5,0,52.4,10.2,71.4,29.1l-25.5,31.5c-14.6-11.2-28.2-17.6-45.9-17.6c-17.4,0-28.2,7.5-28.2,20
		c0,13.6,14.6,18.3,33.7,26.1l28.6,11.5c26.9,10.8,43.9,28.8,43.9,60C-767.5-526.9-798.1-495-851.2-495z M-1172.1-299.4
		c0-43.9,24.8-69.1,61.2-69.1c36.4,0,61.2,25.4,61.2,69.1c0,43.9-24.8,70.3-61.2,70.3C-1147.3-229-1172.1-255.4-1172.1-299.4z
		 M-1080.9-302.1c0-26.8-11.6-42.9-30-42.9c-18.4,0-30,16.1-30,42.9c0,27,11.6,44.1,30,44.1C-1092.5-258-1080.9-275.1-1080.9-302.1z
		 M-951.7-231.2l-25.8-48.5h-16.7v48.5h-30.4v-134.5h48.6c28.5,0,51.9,9.9,51.9,41.9c0,19.8-9.5,32.4-24,38.8l30.6,53.8H-951.7z
		 M-994.3-306.9h15.7c15.9,0,24.6-6.8,24.6-20c0-13.2-8.7-17.7-24.6-17.7h-15.7V-306.9z M-903.8-297.9c0-44.6,29.8-70.6,65.7-70.6
		c19.4,0,33.5,8.5,42.4,17.5l-15.9,19.4c-6.8-6-13.9-10.7-25.4-10.7c-20.9,0-35.6,16.3-35.6,43.3c0,27.6,12.6,43.7,37.8,43.7
		c5.6,0,11.2-1.4,14.5-4.1v-23.1h-22.3v-24.8h49.2v61.9c-9.3,9.1-25.6,16.3-44.4,16.3C-874.9-229-903.8-252.7-903.8-297.9z
		 M-755-400v200h-450v-200H-755 M-730-425h-500v250h500V-425L-730-425z"/>
	<path class="st2" d="M575-685v250h250v-250H575z M712.5-498.8c0,21.3-11.1,38.8-35.6,38.8c-16.8,0-28.1-6.6-35.7-20l17-12.5
		c4.1,7.5,9.9,11,15.5,11c9,0,13.8-4.6,13.8-19.3v-71.7h25V-498.8z M764.4-460c-14.5,0-29.8-5.4-41-15.9l14.3-17.1
		c8,6.8,18.2,11.5,27.4,11.5c10.4,0,15.5-4.1,15.5-10.7c0-6.9-6.3-9.1-16-13.2l-14.5-6.1c-11.4-4.6-22.3-14.1-22.3-30.2
		c0-18.3,16.3-32.9,39.5-32.9c12.8,0,26.2,5.1,35.7,14.6l-12.8,15.8c-7.3-5.6-14.1-8.8-23-8.8c-8.7,0-14.1,3.7-14.1,10
		c0,6.8,7.3,9.1,16.8,13l14.3,5.8c13.4,5.4,21.9,14.4,21.9,30C806.3-475.9,790.9-460,764.4-460z M902.9-559.4
		c0-43.9,24.8-69.1,61.2-69.1c36.4,0,61.2,25.4,61.2,69.1c0,43.9-24.8,70.3-61.2,70.3C927.7-489,902.9-515.4,902.9-559.4z
		 M994.1-562.1c0-26.8-11.6-42.9-30-42.9c-18.4,0-30,16.1-30,42.9c0,27,11.6,44.1,30,44.1C982.5-518,994.1-535.1,994.1-562.1z
		 M1123.3-491.2l-25.8-48.5h-16.7v48.5h-30.4v-134.5h48.6c28.5,0,51.9,9.9,51.9,41.9c0,19.8-9.5,32.4-24,38.8l30.6,53.8H1123.3z
		 M1080.7-566.9h15.7c15.9,0,24.6-6.8,24.6-20c0-13.2-8.7-17.7-24.6-17.7h-15.7V-566.9z M1171.2-557.9c0-44.6,29.8-70.6,65.7-70.6
		c19.4,0,33.5,8.5,42.4,17.5l-15.9,19.4c-6.8-6-13.9-10.7-25.4-10.7c-20.9,0-35.6,16.3-35.6,43.3c0,27.6,12.6,43.7,37.8,43.7
		c5.6,0,11.2-1.4,14.5-4.1v-23.1h-22.3v-24.8h49.2v61.9c-9.3,9.1-25.6,16.3-44.4,16.3C1200.1-489,1171.2-512.7,1171.2-557.9z
		 M1320-660v200H870v-200H1320 M1345-685H845v250h500V-685L1345-685z"/>
	<path class="st1" d="M-3430,290v500h500V290H-3430z M-3155,662.4c0,42.7-22.1,77.6-71.1,77.6c-33.7,0-56.1-13.2-71.4-40l34-25.1
		c8.2,14.9,19.7,22,31,22c18,0,27.6-9.1,27.6-38.6V515h50V662.4z M-3051.2,740c-28.9,0-59.5-10.8-82-31.9l28.6-34.2
		c16,13.6,36.4,23,54.8,23c20.8,0,31-8.1,31-21.3c0-13.9-12.6-18.3-32-26.4l-28.9-12.2c-22.8-9.1-44.6-28.1-44.6-60.3
		c0-36.6,32.7-65.7,78.9-65.7c25.5,0,52.4,10.2,71.4,29.1l-25.5,31.5c-14.6-11.2-28.2-17.6-45.9-17.6c-17.4,0-28.2,7.5-28.2,20
		c0,13.6,14.6,18.3,33.7,26.1l28.6,11.5c26.9,10.8,43.9,28.8,43.9,60C-2967.5,708.1-2998.1,740-3051.2,740z M-2851.1,665.6
		c0-43.9,24.8-69.1,61.2-69.1c36.4,0,61.2,25.4,61.2,69.1c0,43.9-24.8,70.3-61.2,70.3C-2826.3,736-2851.1,709.6-2851.1,665.6z
		 M-2760,665.6c0-26.8-11.6-42.9-30-42.9c-18.4,0-30,16.1-30,42.9c0,27,11.6,44.1,30,44.1C-2771.5,709.8-2760,692.7-2760,665.6z
		 M-2630.8,733.8l-25.8-48.5h-16.7v48.5h-30.4V599.2h48.6c28.5,0,51.9,9.9,51.9,41.9c0,19.8-9.5,32.4-24,38.8l30.6,53.8H-2630.8z
		 M-2673.4,660.9h15.7c15.9,0,24.6-6.8,24.6-20s-8.7-17.7-24.6-17.7h-15.7V660.9z M-2582.9,667.1c0-44.6,29.8-70.6,65.7-70.6
		c19.4,0,33.5,8.5,42.4,17.5l-15.9,19.4c-6.8-6-13.9-10.7-25.4-10.7c-20.9,0-35.6,16.3-35.6,43.3c0,27.6,12.6,43.7,37.8,43.7
		c5.6,0,11.2-1.4,14.5-4.1v-23.1h-22.3v-24.8h49.2v61.9c-9.3,9.1-25.6,16.3-44.4,16.3C-2554,736-2582.9,712.3-2582.9,667.1z
		 M-2435,315v450h-450V315H-2435 M-2410,290h-500v500h500V290L-2410,290z"/>
	<path class="st1" d="M-1230,155v500h500V155H-1230z M-955,527.4c0,42.7-22.1,77.6-71.1,77.6c-33.7,0-56.1-13.2-71.4-40l34-25.1
		c8.2,14.9,19.7,22,31,22c18,0,27.6-9.1,27.6-38.6V380h50V527.4z M-851.2,605c-28.9,0-59.5-10.8-82-31.9l28.6-34.2
		c16,13.6,36.4,23,54.8,23c20.8,0,31-8.1,31-21.3c0-13.9-12.6-18.3-32-26.4l-28.9-12.2c-22.8-9.1-44.6-28.1-44.6-60.3
		c0-36.6,32.7-65.7,78.9-65.7c25.5,0,52.4,10.2,71.4,29.1l-25.5,31.5c-14.6-11.2-28.2-17.6-45.9-17.6c-17.4,0-28.2,7.5-28.2,20
		c0,13.6,14.6,18.3,33.7,26.1l28.6,11.5c26.9,10.8,43.9,28.8,43.9,60C-767.5,573.1-798.1,605-851.2,605z M-1172.1,800.6
		c0-43.9,24.8-69.1,61.2-69.1c36.4,0,61.2,25.4,61.2,69.1c0,43.9-24.8,70.3-61.2,70.3C-1147.3,871-1172.1,844.6-1172.1,800.6z
		 M-1080.9,797.9c0-26.8-11.6-42.9-30-42.9c-18.4,0-30,16.1-30,42.9c0,27,11.6,44.1,30,44.1C-1092.5,842-1080.9,824.9-1080.9,797.9z
		 M-951.7,868.8l-25.8-48.5h-16.7v48.5h-30.4V734.2h48.6c28.5,0,51.9,9.9,51.9,41.9c0,19.8-9.5,32.4-24,38.8l30.6,53.8H-951.7z
		 M-994.3,793.1h15.7c15.9,0,24.6-6.8,24.6-20c0-13.2-8.7-17.7-24.6-17.7h-15.7V793.1z M-903.8,802.1c0-44.6,29.8-70.6,65.7-70.6
		c19.4,0,33.5,8.5,42.4,17.5l-15.9,19.4c-6.8-6-13.9-10.7-25.4-10.7c-20.9,0-35.6,16.3-35.6,43.3c0,27.6,12.6,43.7,37.8,43.7
		c5.6,0,11.2-1.4,14.5-4.1v-23.1h-22.3v-24.8h49.2v61.9c-9.3,9.1-25.6,16.3-44.4,16.3C-874.9,871-903.8,847.3-903.8,802.1z
		 M-755,700v200h-450V700H-755 M-730,675h-500v250h500V675L-730,675z"/>
	<path class="st1" d="M575,415v250h250V415H575z M712.5,601.2c0,21.3-11.1,38.8-35.6,38.8c-16.8,0-28.1-6.6-35.7-20l17-12.5
		c4.1,7.5,9.9,11,15.5,11c9,0,13.8-4.6,13.8-19.3v-71.7h25V601.2z M764.4,640c-14.5,0-29.8-5.4-41-15.9l14.3-17.1
		c8,6.8,18.2,11.5,27.4,11.5c10.4,0,15.5-4.1,15.5-10.7c0-6.9-6.3-9.1-16-13.2l-14.5-6.1c-11.4-4.6-22.3-14.1-22.3-30.2
		c0-18.3,16.3-32.9,39.5-32.9c12.8,0,26.2,5.1,35.7,14.6l-12.8,15.8c-7.3-5.6-14.1-8.8-23-8.8c-8.7,0-14.1,3.7-14.1,10
		c0,6.8,7.3,9.1,16.8,13l14.3,5.8c13.4,5.4,21.9,14.4,21.9,30C806.3,624.1,790.9,640,764.4,640z M902.9,540.6
		c0-43.9,24.8-69.1,61.2-69.1c36.4,0,61.2,25.4,61.2,69.1c0,43.9-24.8,70.3-61.2,70.3C927.7,611,902.9,584.6,902.9,540.6z
		 M994.1,537.9c0-26.8-11.6-42.9-30-42.9c-18.4,0-30,16.1-30,42.9c0,27,11.6,44.1,30,44.1C982.5,582,994.1,564.9,994.1,537.9z
		 M1123.3,608.8l-25.8-48.5h-16.7v48.5h-30.4V474.2h48.6c28.5,0,51.9,9.9,51.9,41.9c0,19.8-9.5,32.4-24,38.8l30.6,53.8H1123.3z
		 M1080.7,533.1h15.7c15.9,0,24.6-6.8,24.6-20c0-13.2-8.7-17.7-24.6-17.7h-15.7V533.1z M1171.2,542.1c0-44.6,29.8-70.6,65.7-70.6
		c19.4,0,33.5,8.5,42.4,17.5l-15.9,19.4c-6.8-6-13.9-10.7-25.4-10.7c-20.9,0-35.6,16.3-35.6,43.3c0,27.6,12.6,43.7,37.8,43.7
		c5.6,0,11.2-1.4,14.5-4.1v-23.1h-22.3v-24.8h49.2v61.9c-9.3,9.1-25.6,16.3-44.4,16.3C1200.1,611,1171.2,587.3,1171.2,542.1z
		 M1320,440v200H870V440H1320 M1345,415H845v250h500V415L1345,415z"/>
</g>
</svg>
