<?xml version="1.0" encoding="utf-8"?>
<!-- Generator: Adobe Illustrator 19.0.1, SVG Export Plug-In . SVG Version: 6.00 Build 0)  -->
<svg version="1.1" xmlns="http://www.w3.org/2000/svg" xmlns:xlink="http://www.w3.org/1999/xlink" x="0px" y="0px"
	 viewBox="0 0 1920 1080" style="enable-background:new 0 0 1920 1080;" xml:space="preserve">
<style type="text/css">
	.st0{fill:#FFB400;}
	.st1{fill:#333333;}
	.st2{fill:#FFFFFF;}
</style>
<g id="bg">
	<rect x="0" class="st1" width="1920" height="1100"/>
</g>
<g id="logo">
	<path class="st2" d="M450,290v500h500V290H450z M725,662.4c0,42.7-22.1,77.6-71.1,77.6c-33.7,0-56.1-13.2-71.4-40l34-25.1
		c8.2,14.9,19.7,22,31,22c18,0,27.6-9.1,27.6-38.6V515h50V662.4z M828.8,740c-28.9,0-59.5-10.8-82-31.9l28.6-34.2
		c16,13.6,36.4,23,54.8,23c20.8,0,31-8.1,31-21.3c0-13.9-12.6-18.3-32-26.4L800.2,637c-22.8-9.1-44.6-28.1-44.6-60.3
		c0-36.6,32.7-65.7,78.9-65.7c25.5,0,52.4,10.2,71.4,29.1l-25.5,31.5c-14.6-11.2-28.2-17.6-45.9-17.6c-17.4,0-28.2,7.5-28.2,20
		c0,13.6,14.6,18.3,33.7,26.1l28.6,11.5c26.9,10.8,43.9,28.8,43.9,60C912.5,708.1,881.9,740,828.8,740z M1028.9,665.6
		c0-43.9,24.8-69.1,61.2-69.1c36.4,0,61.2,25.4,61.2,69.1c0,43.9-24.8,70.3-61.2,70.3C1053.7,736,1028.9,709.6,1028.9,665.6z
		 M1120,665.6c0-26.8-11.6-42.9-30-42.9c-18.4,0-30,16.1-30,42.9c0,27,11.6,44.1,30,44.1C1108.5,709.8,1120,692.7,1120,665.6z
		 M1249.2,733.8l-25.8-48.5h-16.7v48.5h-30.4V599.2h48.6c28.5,0,51.9,9.9,51.9,41.9c0,19.8-9.5,32.4-24,38.8l30.6,53.8H1249.2z
		 M1206.6,660.9h15.7c15.9,0,24.6-6.8,24.6-20s-8.7-17.7-24.6-17.7h-15.7V660.9z M1297.1,667.1c0-44.6,29.8-70.6,65.7-70.6
		c19.4,0,33.5,8.5,42.4,17.5l-15.9,19.4c-6.8-6-13.9-10.7-25.4-10.7c-20.9,0-35.6,16.3-35.6,43.3c0,27.6,12.6,43.7,37.8,43.7
		c5.6,0,11.2-1.4,14.5-4.1v-23.1h-22.3v-24.8h49.2v61.9c-9.3,9.1-25.6,16.3-44.4,16.3C1326,736,1297.1,712.3,1297.1,667.1z
		 M1445,315v450H995V315H1445 M1470,290H970v500h500V290L1470,290z"/>
</g>
</svg>
